<svg width="34" height="34" viewBox="0 0 34 34" fill="none" xmlns="http://www.w3.org/2000/svg">
<g clip-path="url(#clip0_469_115)">
<path d="M34 15.207L25.1016 15.207L25.1016 12.6112C25.1016 11.1282 26.308 9.92177 27.791 9.92177L31.2109 9.92177L31.2109 3.28115L27.791 3.28115C22.6463 3.28115 18.4609 7.46655 18.4609 12.6112L18.4609 30.7461L34 30.7461L34 15.207Z" fill="#FF7816"/>
<path d="M15.5391 30.7461L15.5391 15.207L6.64063 15.207L6.64063 12.6112C6.64063 11.1282 7.84709 9.92177 9.33008 9.92177L12.75 9.92177L12.75 3.28115L9.33008 3.28115C4.18541 3.28115 1.27813e-07 7.46655 -3.21948e-07 12.6112L-1.90735e-06 30.7461L15.5391 30.7461Z" fill="#FE4B00"/>
</g>
<defs>
<clipPath id="clip0_469_115">
<rect width="34" height="34" fill="white" transform="translate(34 34) rotate(-180)"/>
</clipPath>
</defs>
</svg>
